<?xml version="1.0" standalone="no"?>
<!DOCTYPE svg PUBLIC "-//W3C//DTD SVG 20010904//EN"
 "http://www.w3.org/TR/2001/REC-SVG-20010904/DTD/svg10.dtd">
<svg version="1.0" xmlns="http://www.w3.org/2000/svg"
 width="414.000000pt" height="414.000000pt" viewBox="0 0 414.000000 414.000000"
 preserveAspectRatio="xMidYMid meet">
<metadata>
Created by potrace 1.11, written by Peter Selinger 2001-2013
</metadata>
<g transform="translate(0.000000,414.000000) scale(0.100000,-0.100000)"
fill="#000000" stroke="none">
<path d="M1730 3865 c0 -8 -44 -89 -97 -180 -54 -91 -102 -173 -108 -183 -5
-9 -35 -60 -66 -112 -151 -255 -384 -650 -407 -690 -14 -25 -32 -57 -41 -72
-45 -75 -86 -145 -97 -163 -6 -11 -42 -72 -79 -135 -71 -120 -185 -313 -215
-365 -10 -16 -84 -142 -165 -280 -82 -137 -158 -266 -169 -287 -12 -20 -81
-137 -153 -260 -106 -178 -133 -230 -133 -260 0 -28 34 -106 135 -309 74 -149
135 -280 135 -290 0 -19 40 -19 1789 -19 l1789 0 146 295 c112 228 145 302
142 327 -2 21 -62 133 -166 308 -89 151 -173 293 -185 316 -13 22 -35 60 -49
83 -15 23 -35 57 -45 74 -10 18 -233 397 -496 842 -262 446 -488 828 -500 850
-13 22 -84 144 -159 270 -75 127 -134 236 -131 243 3 9 -68 12 -335 12 -296 0
-340 -2 -340 -15z m562 -40 c-12 -20 -214 -275 -222 -280 -6 -4 -47 44 -146
170 -12 17 -37 47 -53 69 -17 21 -29 41 -27 45 2 3 105 6 229 6 147 0 223 -3
219 -10z m-426 -127 c49 -62 91 -115 94 -118 3 -3 20 -25 37 -49 l32 -44 -22
-27 c-12 -14 -33 -41 -47 -59 -21 -28 -176 -225 -213 -271 -7 -8 -35 -44 -62
-80 -28 -36 -52 -67 -55 -70 -3 -3 -62 -77 -130 -165 -68 -88 -129 -165 -135
-171 -5 -6 -37 -46 -70 -88 -58 -75 -128 -164 -185 -236 -107 -135 -411 -522
-435 -555 -17 -22 -32 -42 -35 -45 -5 -5 -50 -61 -251 -315 -53 -66 -101 -129
-107 -140 -6 -11 -12 -16 -12 -12 0 5 37 70 82 145 44 75 91 155 104 177 12
22 63 109 113 193 50 85 91 158 91 163 0 5 5 9 10 9 6 0 10 5 10 11 0 6 8 23
19 37 10 15 29 47 43 72 21 37 259 441 289 490 5 8 75 128 155 265 408 695
586 995 589 995 2 0 43 -51 91 -112z m581 -33 c39 -66 107 -183 153 -260 45
-77 92 -156 103 -175 11 -19 85 -145 165 -280 80 -135 150 -254 156 -265 6
-11 43 -73 81 -138 39 -65 78 -132 89 -150 10 -18 55 -95 101 -172 45 -77 173
-295 285 -485 112 -190 219 -372 240 -405 45 -74 56 -96 36 -70 -9 11 -24 28
-32 39 -14 16 -284 358 -498 631 -39 50 -76 97 -83 105 -7 8 -40 51 -75 95
-34 44 -190 242 -346 440 -155 198 -293 374 -306 390 -65 83 -269 341 -334
423 -59 75 -73 97 -66 112 5 11 61 85 124 165 88 112 117 142 126 132 6 -6 43
-66 81 -132z m-287 -340 c30 -38 57 -72 61 -75 3 -3 21 -26 40 -51 19 -26 106
-138 194 -249 212 -268 391 -495 460 -585 22 -28 130 -165 240 -305 110 -139
216 -273 236 -299 19 -25 112 -143 205 -261 93 -118 194 -246 224 -285 30 -38
59 -75 64 -81 6 -6 22 -26 36 -44 14 -18 57 -74 97 -124 l72 -92 -137 -275
-137 -275 -35 7 c-19 3 -51 9 -70 13 -19 4 -42 9 -50 11 -8 2 -28 7 -45 9 -16
3 -84 17 -150 30 -66 14 -136 28 -155 31 -19 3 -60 10 -90 15 -30 5 -71 12
-90 15 -19 2 -44 6 -55 9 -72 15 -391 54 -585 72 -283 25 -922 25 -1080 0 -14
-3 -61 -8 -105 -12 -44 -4 -82 -8 -85 -9 -3 0 -32 -4 -65 -9 -33 -4 -109 -16
-170 -26 -155 -28 -163 -29 -235 -46 -36 -9 -76 -18 -89 -20 -39 -8 -255 -66
-263 -71 -5 -2 -16 -6 -25 -8 -10 -2 -25 -6 -34 -10 -14 -5 -42 45 -153 271
-76 152 -135 282 -132 288 2 6 103 135 223 287 120 152 229 291 243 309 14 19
42 54 63 79 20 25 41 51 45 56 9 12 339 432 542 690 284 361 417 530 520 661
58 73 166 209 240 303 l134 171 21 -22 c11 -13 45 -54 75 -93z m25 -2830 c231
-8 281 -12 450 -31 28 -4 68 -8 90 -9 22 -2 56 -6 75 -9 19 -3 58 -8 85 -11
28 -3 59 -8 70 -11 11 -2 36 -6 55 -8 56 -7 228 -35 310 -51 41 -8 89 -17 105
-20 56 -10 100 -23 85 -25 -24 -3 -3001 -8 -2998 -5 5 4 152 44 184 50 16 2
38 7 49 9 84 19 166 35 195 40 19 3 46 8 60 11 27 6 127 20 205 30 28 4 61 8
74 10 13 2 58 7 100 11 42 3 87 8 101 9 14 2 108 7 210 10 102 4 186 8 187 9
2 2 95 -1 308 -9z"/>
<path d="M2007 2939 c-104 -16 -216 -98 -266 -197 -48 -95 -51 -129 -51 -579
1 -457 3 -474 58 -576 30 -56 103 -127 160 -156 36 -18 59 -24 142 -35 39 -5
123 18 172 47 89 52 162 157 187 267 13 60 14 861 0 920 -46 202 -220 336
-402 309z"/>
<path d="M1474 2181 c-10 -11 -2 -440 10 -506 27 -145 91 -262 194 -356 72
-65 143 -102 240 -125 l69 -17 0 -208 0 -208 -151 -3 -151 -3 -3 -63 -3 -62
372 2 373 3 -1 48 c-1 26 -2 54 -2 62 -1 13 -24 15 -143 15 l-143 0 0 207 0
208 68 17 c134 35 235 104 311 212 105 149 120 215 120 531 l1 250 -67 0 c-39
0 -68 -4 -69 -10 0 -5 -2 -111 -3 -235 -3 -250 -6 -278 -46 -367 -71 -158
-236 -253 -414 -240 -91 7 -108 11 -165 39 -66 32 -138 108 -170 181 -44 96
-55 160 -66 382 -4 61 -8 138 -9 173 -2 35 -7 66 -11 70 -7 8 -133 10 -141 3z"/>
</g>
</svg>
